Coordinates
version=1
nRows=11
nColumns=42
inDegrees=yes

Units are S.I. units (second, meters, Newtons, ...)
If the header above contains a line with 'inDegrees', this indicates whether rotational values are in degrees (yes) or radians (no).

endheader
time	pelvis_tilt	pelvis_list	pelvis_rotation	pelvis_tx	pelvis_ty	pelvis_tz	hip_flexion_r	hip_adduction_r	hip_rotation_r	knee_angle_r	knee_adduction_r	knee_angle_r_beta	ankle_angle_r	subtalar_angle_r	mtp_angle_r	hip_flexion_l	hip_adduction_l	hip_rotation_l	knee_angle_l	knee_adduction_l	knee_angle_l_beta	ankle_angle_l	subtalar_angle_l	mtp_angle_l	lumbar_extension	lumbar_bending	lumbar_rotation	arm_flex_r	arm_add_r	arm_rot_r	elbow_flex_r	pro_sup_r	wrist_flex_r	wrist_dev_r	arm_flex_l	arm_add_l	arm_rot_l	elbow_flex_l	pro_sup_l	wrist_flex_l	wrist_dev_l
      2.05000000	      6.91143087	      6.08486659	     -3.15368613	     -0.49215798	      0.98030848	      0.31913525	    -19.17097830	     -9.99614402	    -16.46513124	     25.82319292	      1.54823612	      0.45069974	      6.00085054	      7.31848242	     -7.58583269	      7.93360519	      5.61416185	    -13.53387360	      3.50123412	     -1.14245991	      0.06110806	     -8.45435400	     11.05014885	     -7.58583269	    -18.04431934	    -11.43796626	      4.38412375	     24.35593092	    -17.65375679	     29.31955828	     37.54186929	     90.00000001	      0.00000000	      0.00000000	    -15.80875818	    -13.31704508	      6.79314004	     38.01487306	     90.00000001	      0.00000000	      0.00000000
      2.06000000	      6.99187026	      6.19942381	     -3.08457209	     -0.48287200	      0.98213302	      0.31707962	    -18.48975801	    -10.73827954	    -16.97888556	     28.21062183	      1.57561053	      0.49236823	      3.86856026	      6.75402314	     -7.58441970	      7.11679843	      5.92608330	    -13.65308504	      3.23766561	     -1.09082356	      0.05650793	     -8.00256444	     11.54997485	     -7.58441970	    -18.13795908	    -11.60890396	      4.15071271	     23.61501319	    -17.62239398	     29.18177963	     37.55008360	     90.00000001	      0.00000000	      0.00000000	    -15.26521845	    -13.55784654	      7.19238645	     37.83153613	     90.00000001	      0.00000000	      0.00000000
      2.07000000	      7.04704268	      6.30997617	     -2.95876043	     -0.47377970	      0.98388283	      0.31491620	    -17.64646681	    -11.49757361	    -17.50104910	     30.81338624	      1.57522155	      0.53779504	      1.59822836	      5.98178432	     -7.58294542	      6.36891084	      6.25635826	    -13.68170321	      3.03730076	     -1.08019973	      0.05301090	     -7.53864978	     12.05035456	     -7.58294542	    -18.24080830	    -11.74627586	      3.85542030	     22.84403022	    -17.58667242	     29.01287619	     37.59040047	     90.00000001	      0.00000000	      0.00000000	    -14.66874980	    -13.84575762	      7.67091027	     37.67753185	     90.00000001	      0.00000000	      0.00000000
      2.08000000	      7.12220623	      6.37974346	     -2.82846507	     -0.46496297	      0.98559046	      0.31278678	    -16.68391501	    -12.22367384	    -17.98199557	     33.55659255	      1.50555798	      0.58567303	     -0.75403086	      5.01341536	     -7.58151003	      5.62224980	      6.53770527	    -13.62056608	      2.86870337	     -1.06143079	      0.05006832	     -7.00003506	     12.49341546	     -7.58151003	    -18.40040872	    -11.83894381	      3.57148315	     22.08318536	    -17.55910048	     28.84569050	     37.61225566	     90.00000001	      0.00000000	      0.00000000	    -14.00148292	    -14.15358561	      8.17135342	     37.57035157	     90.00000001	      0.00000000	      0.00000000
      2.09000000	      6.99234024	      6.49411286	     -2.57797874	     -0.45657533	      0.98689371	      0.31042313	    -15.37586610	    -13.02985051	    -18.18341591	     36.52972551	      1.67441866	      0.63756398	     -3.08563156	      3.12532907	     -7.57836184	      5.22981924	      6.90273244	    -13.48104172	      2.86414285	     -1.15801939	      0.04998872	     -6.56379172	     12.87978333	     -7.57836184	    -18.38940827	    -11.91938271	      3.22485461	     21.27476055	    -17.51445828	     28.48134508	     37.66864337	     90.00000001	      0.00000000	      0.00000000	    -13.27152232	    -14.60097235	      9.19505011	     37.54061008	     90.00000001	      0.00000000	      0.00000000
      2.10000000	      7.26781405	      6.43135379	     -2.48214736	     -0.44817747	      0.98873584	      0.30858970	    -14.44932168	    -13.54743685	    -18.52069579	     39.28144070	      1.40096423	      0.68559048	     -5.35416584	      2.13426883	     -7.57715061	      4.23417787	      6.99208184	    -13.32953258	      2.64978279	     -1.04027637	      0.04624743	     -5.92678867	     13.18885201	     -7.57715061	    -18.80391334	    -11.86730635	      2.97579876	     20.60673349	    -17.48348194	     28.42774554	     37.63345412	     90.00000001	      0.00000000	      0.00000000	    -12.46374148	    -14.89284081	      9.47349434	     37.48540995	     90.00000001	      0.00000000	      0.00000000
      2.11000000	      7.25762484	      6.48310799	     -2.27827964	     -0.44023966	      0.98998107	      0.30642522	    -13.04031095	    -14.25037506	    -18.92256581	     42.29946020	      1.17473549	      0.73826485	     -7.77395568	      0.30472360	     -7.57554344	      3.66277411	      7.29182716	    -13.13186777	      2.50973561	     -1.15125068	      0.04380315	     -5.43448559	     13.50401051	     -7.57554344	    -18.97711982	    -11.89550043	      2.62957092	     19.86167108	    -17.47932351	     28.30533937	     37.67970895	     90.00000001	      0.00000000	      0.00000000	    -11.61553632	    -15.24980297	     10.08212089	     37.44396951	     90.00000001	      0.00000000	      0.00000000
      2.12000000	      7.17096672	      6.48363086	     -2.06483723	     -0.43279407	      0.99103376	      0.30436517	    -11.50701588	    -14.86449324	    -18.25300600	     45.28881502	      1.66404906	      0.79043894	     -9.95339848	     -3.08869801	     -7.57152714	      3.25381229	      7.47979032	    -12.81690166	      2.50787405	     -1.16790577	      0.04377066	     -5.01902240	     13.47430589	     -7.57152714	    -19.09353825	    -11.85970969	      2.35149652	     19.13635900	    -17.42751230	     27.99123447	     37.64089228	     90.00000001	      0.00000000	      0.00000000	    -10.64186955	    -15.77508358	     11.27051466	     37.48728868	     90.00000001	      0.00000000	      0.00000000
      2.13000000	      7.23657395	      6.47569759	     -1.84490493	     -0.42534869	      0.99215554	      0.30239079	    -10.08153081	    -15.40716191	    -18.42009236	     48.14330736	      1.43173279	      0.84025923	    -11.82449263	     -4.94296862	     -7.56897969	      2.60991209	      7.65480342	    -12.58385733	      2.36701633	     -1.17791155	      0.04131223	     -4.62533430	     13.75218993	     -7.56897969	    -19.38181572	    -11.81007427	      1.99524082	     18.46262305	    -17.40977290	     27.94801402	     37.65656143	     90.00000001	      0.00000000	      0.00000000	     -9.65071713	    -16.14608453	     11.78203101	     37.47641854	     90.00000001	      0.00000000	      0.00000000
      2.14000000	      7.60067733	      6.35543222	     -1.75947515	     -0.41796883	      0.99364978	      0.30094323	     -8.96065934	    -15.72280307	    -18.53287679	     50.73905820	      0.99230705	      0.88556362	    -12.80977757	     -5.74070277	     -7.56807740	      1.56477122	      7.60077808	    -12.44849322	      2.13717558	     -0.98876773	      0.03730075	     -4.07214354	     14.07048737	     -7.56807740	    -19.99011572	    -11.69785024	      1.72404771	     17.90806417	    -17.34180554	     27.98152247	     37.53257251	     90.00000001	      0.00000000	      0.00000000	     -8.60834816	    -16.46961332	     11.96493475	     37.46541669	     90.00000001	      0.00000000	      0.00000000
      2.15000000	      7.31319441	      6.49071535	     -1.58588329	     -0.41108240	      0.99388780	      0.29897665	     -6.93677867	    -16.42736206	    -18.12327886	     53.64603930	      1.10756572	      0.93630002	    -14.34811477	     -8.80440328	     -7.56502218	      1.43662687	      7.98944451	    -12.41601052	      2.11263861	     -1.20517051	      0.03687250	     -3.71017433	     14.32735716	     -7.56502218	    -19.86883967	    -11.79044887	      1.48623817	     17.14797938	    -17.31209124	     27.84413138	     37.52317063	     90.00000001	      0.00000000	      0.00000000	     -7.50699460	    -17.01647555	     13.15824295	     37.46442409	     90.00000001	      0.00000000	      0.00000000
